<?xml version="1.0" standalone="no"?>
<!DOCTYPE svg PUBLIC "-//W3C//DTD SVG 20010904//EN"
 "http://www.w3.org/TR/2001/REC-SVG-20010904/DTD/svg10.dtd">
<svg version="1.0" xmlns="http://www.w3.org/2000/svg"
 width="1000.000000pt" height="623.000000pt" viewBox="0 0 1000.000000 623.000000"
 preserveAspectRatio="xMidYMid meet">

<g transform="translate(0.000000,623.000000) scale(0.100000,-0.100000)"
fill="#000000" stroke="none">
<path d="M2940 6179 c-1292 -140 -2353 -1064 -2669 -2325 -314 -1256 206
-2589 1291 -3307 509 -337 1078 -507 1698 -507 307 0 565 35 845 115 814 233
1504 797 1888 1542 61 119 177 390 177 414 0 6 -24 9 -56 7 l-55 -3 -48 -115
c-283 -683 -783 -1220 -1435 -1540 -100 -49 -230 -106 -291 -128 -568 -205
-1172 -235 -1750 -87 -408 105 -760 279 -1105 545 -114 89 -380 352 -474 470
-626 786 -816 1826 -506 2770 112 342 284 662 506 940 84 105 342 364 447 449
111 90 334 237 457 304 488 261 1053 385 1588 349 417 -29 753 -118 1128 -302
298 -146 550 -326 784 -560 284 -283 493 -598 651 -980 l48 -115 55 -3 c32 -2
56 1 56 7 0 24 -116 295 -177 414 -77 150 -225 377 -337 517 -105 131 -318
344 -456 455 -428 345 -914 561 -1460 652 -135 22 -191 26 -435 28 -154 2
-318 -1 -365 -6z"/>
<path d="M1920 3731 l0 -61 68 0 67 0 -3 -502 c-4 -579 -1 -562 -84 -588 l-48
-15 0 -48 0 -49 338 4 c304 4 345 7 415 26 224 61 394 218 458 422 57 184 47
341 -33 510 -78 164 -222 277 -424 332 -72 19 -111 22 -416 26 l-338 4 0 -61z
m673 -71 c206 -64 317 -253 317 -537 0 -175 -48 -317 -140 -413 -92 -97 -188
-130 -373 -130 l-118 0 3 508 c3 561 2 551 68 585 43 22 147 17 243 -13z"/>
<path d="M5900 3730 l0 -60 55 0 c52 0 55 -1 55 -25 0 -39 51 -168 278 -695
l208 -485 60 -3 60 -3 13 38 c50 141 376 1016 391 1049 29 66 86 123 136 135
l44 11 0 49 0 49 -200 0 -200 0 0 -60 0 -60 70 0 70 0 -14 -22 c-14 -22 -197
-522 -274 -750 -21 -60 -40 -108 -43 -108 -3 0 -24 46 -47 103 -22 56 -93 229
-156 384 -68 166 -116 296 -116 315 0 48 24 76 76 89 l44 11 0 49 0 49 -255 0
-255 0 0 -60z"/>
<path d="M3594 3426 c-153 -35 -254 -123 -254 -221 0 -43 23 -90 49 -105 25
-13 87 -13 112 0 40 22 61 98 38 141 -32 60 140 116 222 73 47 -24 70 -86 72
-196 l2 -92 -95 -13 c-318 -43 -488 -194 -440 -392 46 -192 312 -239 501 -90
20 16 40 29 43 29 3 0 6 -20 6 -45 l0 -45 160 0 160 0 0 61 0 61 -58 -7 -58
-6 1 308 c0 277 -2 313 -19 362 -24 69 -82 133 -148 161 -65 28 -207 36 -294
16z m234 -638 l-3 -123 -52 -31 c-62 -37 -108 -46 -159 -32 -61 16 -84 48 -84
113 0 52 3 59 43 102 33 35 59 51 112 69 39 13 87 24 108 24 l38 0 -3 -122z"/>
<path d="M4815 3420 c-33 -10 -86 -35 -119 -55 -32 -19 -60 -35 -62 -35 -1 0
-4 21 -6 48 -3 45 -4 47 -36 50 -19 2 -51 -6 -77 -18 -26 -13 -82 -25 -139
-32 l-96 -11 0 -53 0 -54 66 0 66 0 -4 -307 c-3 -319 -6 -338 -47 -370 -9 -7
-26 -13 -38 -13 -21 0 -23 -5 -23 -50 l0 -50 225 0 225 0 0 61 0 62 -60 -7
-60 -7 2 318 3 318 48 32 c128 86 264 58 306 -63 15 -44 28 -445 16 -521 -8
-53 -42 -93 -80 -93 -23 0 -25 -3 -25 -50 l0 -50 225 0 225 0 0 61 0 61 -59
-7 -60 -7 -3 314 c-3 302 -4 315 -27 373 -28 71 -89 135 -146 153 -72 23 -174
24 -240 2z"/>
<path d="M7491 3424 c-161 -43 -285 -171 -336 -346 -24 -83 -22 -235 4 -318
83 -267 400 -396 660 -269 283 139 353 585 127 811 -116 116 -298 164 -455
122z m187 -108 c68 -35 122 -131 143 -249 15 -90 7 -295 -15 -365 -25 -77 -86
-138 -148 -147 -78 -12 -117 1 -169 55 -80 82 -115 217 -106 399 8 160 59 271
142 307 40 18 119 17 153 0z"/>
</g>
</svg>
